<mxfile host="app.diagrams.net" modified="2024-07-11T16:34:22.599Z" agent="Mozilla/5.0 (Windows NT 10.0; Win64; x64) AppleWebKit/537.36 (KHTML, like Gecko) Chrome/126.0.0.0 Safari/537.36" etag="MCCyimdxZ_ItBr8_nGrU" version="24.6.4" type="device">
  <diagram name="Page-1" id="w5ClZPRWRFvCxjPFkPrI">
    <mxGraphModel dx="1154" dy="532" grid="1" gridSize="10" guides="1" tooltips="1" connect="1" arrows="1" fold="1" page="1" pageScale="1" pageWidth="850" pageHeight="1100" math="0" shadow="0">
      <root>
        <mxCell id="0" />
        <mxCell id="1" parent="0" />
        <mxCell id="pscRUcZhTwgnnduImwL--1" value="Start" style="rounded=1;whiteSpace=wrap;html=1;" vertex="1" parent="1">
          <mxGeometry x="140" y="50" width="120" height="60" as="geometry" />
        </mxCell>
        <mxCell id="pscRUcZhTwgnnduImwL--2" value="Stop" style="rounded=1;whiteSpace=wrap;html=1;" vertex="1" parent="1">
          <mxGeometry x="360" y="327" width="120" height="60" as="geometry" />
        </mxCell>
        <mxCell id="pscRUcZhTwgnnduImwL--3" value="x: int = 1" style="rounded=0;whiteSpace=wrap;html=1;" vertex="1" parent="1">
          <mxGeometry x="140" y="130" width="120" height="60" as="geometry" />
        </mxCell>
        <mxCell id="pscRUcZhTwgnnduImwL--4" value="x = x + 1" style="rounded=0;whiteSpace=wrap;html=1;" vertex="1" parent="1">
          <mxGeometry x="145" y="387" width="120" height="60" as="geometry" />
        </mxCell>
        <mxCell id="pscRUcZhTwgnnduImwL--5" value="print(x)" style="shape=document;whiteSpace=wrap;html=1;boundedLbl=1;" vertex="1" parent="1">
          <mxGeometry x="155" y="317" width="90" height="60" as="geometry" />
        </mxCell>
        <mxCell id="pscRUcZhTwgnnduImwL--17" value="" style="edgeStyle=orthogonalEdgeStyle;rounded=0;orthogonalLoop=1;jettySize=auto;html=1;" edge="1" parent="1" source="pscRUcZhTwgnnduImwL--13" target="pscRUcZhTwgnnduImwL--5">
          <mxGeometry relative="1" as="geometry" />
        </mxCell>
        <mxCell id="pscRUcZhTwgnnduImwL--18" style="edgeStyle=orthogonalEdgeStyle;rounded=0;orthogonalLoop=1;jettySize=auto;html=1;" edge="1" parent="1" source="pscRUcZhTwgnnduImwL--13">
          <mxGeometry relative="1" as="geometry">
            <mxPoint x="349.9999999999998" y="249.9999999999999" as="targetPoint" />
          </mxGeometry>
        </mxCell>
        <mxCell id="pscRUcZhTwgnnduImwL--13" value="while x &amp;lt; 11" style="ellipse;whiteSpace=wrap;html=1;aspect=fixed;" vertex="1" parent="1">
          <mxGeometry x="160" y="210" width="80" height="80" as="geometry" />
        </mxCell>
        <mxCell id="pscRUcZhTwgnnduImwL--14" value="" style="endArrow=none;html=1;rounded=0;" edge="1" parent="1">
          <mxGeometry width="50" height="50" relative="1" as="geometry">
            <mxPoint x="173" y="489" as="sourcePoint" />
            <mxPoint x="243" y="489" as="targetPoint" />
          </mxGeometry>
        </mxCell>
        <mxCell id="pscRUcZhTwgnnduImwL--15" value="" style="endArrow=none;html=1;rounded=0;" edge="1" parent="1">
          <mxGeometry width="50" height="50" relative="1" as="geometry">
            <mxPoint x="148" y="499" as="sourcePoint" />
            <mxPoint x="253" y="499" as="targetPoint" />
          </mxGeometry>
        </mxCell>
        <mxCell id="pscRUcZhTwgnnduImwL--16" value="" style="endArrow=classic;html=1;rounded=0;" edge="1" parent="1">
          <mxGeometry width="50" height="50" relative="1" as="geometry">
            <mxPoint x="210" y="457" as="sourcePoint" />
            <mxPoint x="210" y="487" as="targetPoint" />
          </mxGeometry>
        </mxCell>
        <mxCell id="pscRUcZhTwgnnduImwL--20" value="" style="edgeStyle=orthogonalEdgeStyle;rounded=0;orthogonalLoop=1;jettySize=auto;html=1;" edge="1" parent="1" source="pscRUcZhTwgnnduImwL--19" target="pscRUcZhTwgnnduImwL--2">
          <mxGeometry relative="1" as="geometry" />
        </mxCell>
        <mxCell id="pscRUcZhTwgnnduImwL--19" value="print(&quot;finish&quot;)" style="shape=document;whiteSpace=wrap;html=1;boundedLbl=1;" vertex="1" parent="1">
          <mxGeometry x="360" y="220" width="120" height="70" as="geometry" />
        </mxCell>
        <mxCell id="pscRUcZhTwgnnduImwL--21" value="x:&lt;br&gt;11" style="text;html=1;align=center;verticalAlign=middle;whiteSpace=wrap;rounded=0;" vertex="1" parent="1">
          <mxGeometry x="360" y="70" width="60" height="30" as="geometry" />
        </mxCell>
      </root>
    </mxGraphModel>
  </diagram>
</mxfile>
